<svg width="263" height="257" viewBox="0 0 263 257" version="1.1" xmlns="http://www.w3.org/2000/svg" xmlns:xlink="http://www.w3.org/1999/xlink">
<title>logo_solid_with_text</title>
<desc>Created using Figma</desc>
<g id="Canvas" transform="translate(-706 115)">
<g id="logo_solid_with_text">
<g id="Trust Wallet">
<use xlink:href="#path0_fill" transform="translate(696 95)" fill="#3375BB"/>
</g>
<g id="logo_solid_white">
<use xlink:href="#path1_fill" transform="translate(766 -108)" fill="#FFFFFF"/>
<use xlink:href="#path2_stroke" transform="translate(766 -108)" fill="#3375BB"/>
</g>
</g>
</g>
<defs>
<path id="path0_fill" d="M 38.1914 14.3105L 26.7656 14.3105L 26.7656 46L 22.1025 46L 22.1025 14.3105L 10.7012 14.3105L 10.7012 10.4531L 38.1914 10.4531L 38.1914 14.3105ZM 53.6699 23.6367C 52.9863 23.5228 52.2458 23.4658 51.4482 23.4658C 48.486 23.4658 46.4759 24.7272 45.418 27.25L 45.418 46L 40.9014 46L 40.9014 19.584L 45.2959 19.584L 45.3691 22.6357C 46.8503 20.2757 48.9499 19.0957 51.668 19.0957C 52.5469 19.0957 53.2142 19.2096 53.6699 19.4375L 53.6699 23.6367ZM 74.1533 43.3877C 72.3955 45.4548 69.8158 46.4883 66.4141 46.4883C 63.5983 46.4883 61.4499 45.6745 59.9688 44.0469C 58.5039 42.403 57.7633 39.9779 57.7471 36.7715L 57.7471 19.584L 62.2637 19.584L 62.2637 36.6494C 62.2637 40.6533 63.8913 42.6553 67.1465 42.6553C 70.597 42.6553 72.8919 41.3695 74.0312 38.7979L 74.0312 19.584L 78.5479 19.584L 78.5479 46L 74.251 46L 74.1533 43.3877ZM 100.813 38.9932C 100.813 37.7725 100.35 36.8285 99.4219 36.1611C 98.5104 35.4775 96.9072 34.8916 94.6123 34.4033C 92.3337 33.915 90.5189 33.3291 89.168 32.6455C 87.8333 31.9619 86.8405 31.1481 86.1895 30.2041C 85.5547 29.2601 85.2373 28.137 85.2373 26.835C 85.2373 24.6702 86.1488 22.8392 87.9717 21.3418C 89.8109 19.8444 92.1546 19.0957 95.0029 19.0957C 97.9977 19.0957 100.423 19.8688 102.278 21.415C 104.15 22.9613 105.086 24.9388 105.086 27.3477L 100.545 27.3477C 100.545 26.1107 100.016 25.0446 98.958 24.1494C 97.9163 23.2542 96.598 22.8066 95.0029 22.8066C 93.359 22.8066 92.0732 23.1647 91.1455 23.8809C 90.2178 24.597 89.7539 25.5329 89.7539 26.6885C 89.7539 27.779 90.1852 28.6009 91.0479 29.1543C 91.9105 29.7077 93.4648 30.2367 95.7109 30.7412C 97.9733 31.2458 99.8044 31.848 101.204 32.5479C 102.604 33.2477 103.637 34.0941 104.305 35.0869C 104.988 36.0635 105.33 37.2598 105.33 38.6758C 105.33 41.0358 104.386 42.932 102.498 44.3643C 100.61 45.7803 98.1605 46.4883 95.1494 46.4883C 93.0335 46.4883 91.1618 46.1139 89.5342 45.3652C 87.9066 44.6165 86.6289 43.5749 85.7012 42.2402C 84.7897 40.8893 84.334 39.4326 84.334 37.8701L 88.8506 37.8701C 88.932 39.3838 89.5342 40.5882 90.6572 41.4834C 91.7965 42.3623 93.2939 42.8018 95.1494 42.8018C 96.8584 42.8018 98.2256 42.46 99.251 41.7764C 100.293 41.0765 100.813 40.1488 100.813 38.9932ZM 117.342 13.1875L 117.342 19.584L 122.273 19.584L 122.273 23.0752L 117.342 23.0752L 117.342 39.457C 117.342 40.515 117.562 41.3125 118.001 41.8496C 118.44 42.3704 119.189 42.6309 120.247 42.6309C 120.768 42.6309 121.484 42.5332 122.396 42.3379L 122.396 46C 121.207 46.3255 120.052 46.4883 118.929 46.4883C 116.91 46.4883 115.389 45.8779 114.363 44.6572C 113.338 43.4365 112.825 41.7031 112.825 39.457L 112.825 23.0752L 108.016 23.0752L 108.016 19.584L 112.825 19.584L 112.825 13.1875L 117.342 13.1875ZM 148.348 34.7939L 149.031 39.4814L 150.032 35.2578L 157.063 10.4531L 161.019 10.4531L 167.879 35.2578L 168.855 39.5547L 169.612 34.7695L 175.13 10.4531L 179.842 10.4531L 171.224 46L 166.951 46L 159.627 20.0967L 159.065 17.3867L 158.504 20.0967L 150.911 46L 146.639 46L 138.045 10.4531L 142.732 10.4531L 148.348 34.7939ZM 199.837 46C 199.576 45.4792 199.365 44.5514 199.202 43.2168C 197.103 45.3978 194.596 46.4883 191.683 46.4883C 189.078 46.4883 186.938 45.7559 185.262 44.291C 183.602 42.8099 182.771 40.9382 182.771 38.6758C 182.771 35.9251 183.813 33.793 185.896 32.2793C 187.996 30.7493 190.942 29.9844 194.734 29.9844L 199.129 29.9844L 199.129 27.9092C 199.129 26.3304 198.657 25.0771 197.713 24.1494C 196.769 23.2054 195.377 22.7334 193.538 22.7334C 191.927 22.7334 190.576 23.1403 189.485 23.9541C 188.395 24.7679 187.85 25.7526 187.85 26.9082L 183.309 26.9082C 183.309 25.5898 183.772 24.3203 184.7 23.0996C 185.644 21.8626 186.914 20.8861 188.509 20.1699C 190.12 19.4538 191.886 19.0957 193.807 19.0957C 196.85 19.0957 199.235 19.8607 200.96 21.3906C 202.685 22.9043 203.58 24.9958 203.646 27.665L 203.646 39.8232C 203.646 42.2484 203.955 44.1771 204.573 45.6094L 204.573 46L 199.837 46ZM 192.342 42.5576C 193.758 42.5576 195.101 42.1914 196.37 41.459C 197.64 40.7266 198.559 39.7744 199.129 38.6025L 199.129 33.1826L 195.589 33.1826C 190.055 33.1826 187.288 34.8021 187.288 38.041C 187.288 39.457 187.76 40.5638 188.704 41.3613C 189.648 42.1589 190.861 42.5576 192.342 42.5576ZM 215.633 46L 211.116 46L 211.116 8.5L 215.633 8.5L 215.633 46ZM 227.791 46L 223.274 46L 223.274 8.5L 227.791 8.5L 227.791 46ZM 246.004 46.4883C 242.423 46.4883 239.51 45.3164 237.264 42.9727C 235.018 40.6126 233.895 37.4632 233.895 33.5244L 233.895 32.6943C 233.895 30.0739 234.391 27.7383 235.384 25.6875C 236.393 23.6204 237.793 22.0091 239.583 20.8535C 241.39 19.6816 243.343 19.0957 245.442 19.0957C 248.877 19.0957 251.546 20.2269 253.45 22.4893C 255.354 24.7516 256.307 27.9906 256.307 32.2061L 256.307 34.0859L 238.411 34.0859C 238.476 36.6901 239.233 38.7979 240.682 40.4092C 242.146 42.0042 244.002 42.8018 246.248 42.8018C 247.843 42.8018 249.194 42.4762 250.301 41.8252C 251.408 41.1742 252.376 40.3115 253.206 39.2373L 255.965 41.3857C 253.751 44.7874 250.431 46.4883 246.004 46.4883ZM 245.442 22.8066C 243.619 22.8066 242.09 23.474 240.853 24.8086C 239.616 26.127 238.851 27.9824 238.558 30.375L 251.79 30.375L 251.79 30.0332C 251.66 27.7383 251.041 25.9642 249.935 24.7109C 248.828 23.4414 247.33 22.8066 245.442 22.8066ZM 267.684 13.1875L 267.684 19.584L 272.615 19.584L 272.615 23.0752L 267.684 23.0752L 267.684 39.457C 267.684 40.515 267.903 41.3125 268.343 41.8496C 268.782 42.3704 269.531 42.6309 270.589 42.6309C 271.11 42.6309 271.826 42.5332 272.737 42.3379L 272.737 46C 271.549 46.3255 270.394 46.4883 269.271 46.4883C 267.252 46.4883 265.73 45.8779 264.705 44.6572C 263.68 43.4365 263.167 41.7031 263.167 39.457L 263.167 23.0752L 258.357 23.0752L 258.357 19.584L 263.167 19.584L 263.167 13.1875L 267.684 13.1875Z"/>
<path id="path1_fill" d="M 72.4 -7.62939e-07C 101.7 22.7 135.3 21.3 144.9 21.3C 142.8 150.4 126.8 133.2 72.4 169.4C 18 133.2 2.10002 150.4 2.44141e-05 21.3C 9.50002 21.3 43.1 22.7 72.4 -7.62939e-07Z"/>
<path id="path2_stroke" d="M 72.4 -7.62939e-07L 76.6355 -5.46695C 74.1422 -7.39862 70.6578 -7.39862 68.1645 -5.46695L 72.4 -7.62939e-07ZM 144.9 21.3L 151.815 21.4125C 151.845 19.5591 151.13 17.7711 149.83 16.4498C 148.53 15.1284 146.754 14.3843 144.9 14.3843L 144.9 21.3ZM 72.4 169.4L 68.5687 175.157C 70.8895 176.702 73.9105 176.702 76.2312 175.157L 72.4 169.4ZM 2.44141e-05 21.3L 2.44141e-05 14.3843C -1.85363 14.3843 -3.62969 15.1284 -4.92972 16.4498C -6.22975 17.7711 -6.94491 19.5591 -6.91476 21.4125L 2.44141e-05 21.3ZM 68.1645 5.46695C 99.5498 29.7826 135.462 28.2157 144.9 28.2157L 144.9 14.3843C 135.138 14.3843 103.85 15.6174 76.6355 -5.46695L 68.1645 5.46695ZM 137.985 21.1875C 137.464 53.3107 136.105 75.9691 133.502 92.7573C 130.933 109.367 127.26 119.322 122.533 126.314C 117.743 133.578 111.735 137.889 102.832 143.208C 93.8513 148.587 82.5074 154.381 68.5687 163.643L 76.2312 175.157C 89.4925 166.319 100.549 160.688 109.934 155.076C 119.396 149.405 127.719 143.159 133.992 134.061C 140.327 124.69 144.448 112.476 147.17 94.8709C 149.858 77.4434 151.286 53.8393 151.815 21.4125L 137.985 21.1875ZM 76.2312 163.643C 62.2932 154.381 50.9569 148.588 41.9867 143.21C 33.0938 137.892 27.0986 133.583 22.3207 126.32C 17.6046 119.329 13.9431 109.373 11.3835 92.7609C 8.78912 75.9719 7.43571 53.3117 6.91481 21.1875L -6.91476 21.4125C -6.38566 53.8383 -4.96407 77.4407 -2.28659 94.8672C 0.425674 112.47 4.53296 124.684 10.8543 134.055C 17.1139 143.154 25.4249 149.402 34.8789 155.075C 44.2555 160.687 55.3068 166.319 68.5687 175.157L 76.2312 163.643ZM 2.44141e-05 28.2157C 9.34005 28.2157 45.2509 29.782 76.6355 5.46695L 68.1645 -5.46695C 40.9491 15.618 9.66 14.3843 2.44141e-05 14.3843L 2.44141e-05 28.2157Z"/>
</defs>
</svg>
